<svg width="19" height="19" viewBox="0 0 19 19" fill="none" xmlns="http://www.w3.org/2000/svg">
<g clip-path="url(#clip0_21_1943)">
<path d="M0.696774 11.1546L3.76052 14.25C3.83412 14.3242 3.92168 14.3831 4.01815 14.4233C4.11462 14.4635 4.2181 14.4842 4.32261 14.4842C4.42712 14.4842 4.53059 14.4635 4.62706 14.4233C4.72354 14.3831 4.81109 14.3242 4.88469 14.25C4.95889 14.1764 5.01779 14.0889 5.05798 13.9924C5.09817 13.8959 5.11886 13.7925 5.11886 13.688C5.11886 13.5835 5.09817 13.48 5.05798 13.3835C5.01779 13.287 4.95889 13.1995 4.88469 13.1259L2.06636 10.2917H18.2084C18.4184 10.2917 18.6198 10.2083 18.7682 10.0598C18.9167 9.91137 19.0001 9.71001 19.0001 9.50004C19.0001 9.29008 18.9167 9.08872 18.7682 8.94025C18.6198 8.79178 18.4184 8.70838 18.2084 8.70838H2.01886L4.88469 5.84254C5.02504 5.69531 5.10334 5.4997 5.10334 5.29629C5.10334 5.09288 5.02504 4.89727 4.88469 4.75004C4.81109 4.67584 4.72354 4.61695 4.62706 4.57675C4.53059 4.53656 4.42712 4.51587 4.32261 4.51587C4.2181 4.51587 4.11462 4.53656 4.01815 4.57675C3.92168 4.61695 3.83412 4.67584 3.76052 4.75004L0.696774 7.79796C0.252014 8.24327 0.00219727 8.84692 0.00219727 9.47629C0.00219727 10.1057 0.252014 10.7093 0.696774 11.1546Z" fill="white"/>
</g>
<defs>
<clipPath id="clip0_21_1943">
<rect width="19" height="19" fill="white"/>
</clipPath>
</defs>
</svg>
