<svg width="37" height="37" viewBox="0 0 37 37" fill="none" xmlns="http://www.w3.org/2000/svg">
<g clip-path="url(#clip0_21_1220)">
<path d="M27.5772 26.0451L19.9168 18.3848L27.5772 10.7245C27.7803 10.5213 27.8945 10.2457 27.8945 9.95842C27.8945 9.6711 27.7803 9.39555 27.5772 9.19239V9.19239C27.374 8.98922 27.0984 8.87509 26.8111 8.87509C26.5238 8.87509 26.2483 8.98922 26.0451 9.19239L18.3848 16.8527L10.7244 9.19239C10.5213 8.98922 10.2457 8.87509 9.95841 8.87509C9.67109 8.87509 9.39554 8.98922 9.19238 9.19239V9.19239C8.98921 9.39555 8.87508 9.6711 8.87508 9.95842C8.87508 10.2457 8.98921 10.5213 9.19238 10.7245L16.8527 18.3848L9.19238 26.0451C8.98921 26.2483 8.87508 26.5238 8.87508 26.8111C8.87508 27.0985 8.98921 27.374 9.19238 27.5772C9.39554 27.7803 9.67109 27.8945 9.95841 27.8945C10.2457 27.8945 10.5213 27.7803 10.7244 27.5772L18.3848 19.9168L26.0451 27.5772C26.2483 27.7803 26.5238 27.8945 26.8111 27.8945C27.0984 27.8945 27.374 27.7803 27.5772 27.5772C27.7803 27.374 27.8945 27.0985 27.8945 26.8111C27.8945 26.5238 27.7803 26.2483 27.5772 26.0451Z" fill="#99A7B2"/>
</g>
<defs>
<clipPath id="clip0_21_1220">
<rect width="26" height="26" fill="white" transform="translate(18.3848) rotate(45)"/>
</clipPath>
</defs>
</svg>
